<svg width="153" height="61" viewBox="0 0 153 61" fill="none" xmlns="http://www.w3.org/2000/svg">
<path fill-rule="evenodd" clip-rule="evenodd" d="M104.051 0L94.0098 21.9221H142.388L152.429 0H104.051Z" fill="#CC2A41"/>
<path fill-rule="evenodd" clip-rule="evenodd" d="M116.861 10.9602C117.41 11.4988 117.685 12.1891 117.685 13.0305C117.685 13.7443 117.497 14.3788 117.125 14.9333C116.752 15.4871 116.225 15.9188 115.544 16.2278C114.863 16.536 114.063 16.6919 113.147 16.6919C112.328 16.6919 111.521 16.565 110.728 16.316C109.934 16.065 109.266 15.7326 108.723 15.3167L109.81 13.254C110.277 13.6485 110.778 13.9478 111.31 14.1491C111.843 14.3519 112.375 14.4533 112.908 14.4533C113.525 14.4533 114 14.3333 114.33 14.0933C114.66 13.854 114.825 13.5105 114.825 13.0622C114.825 12.6147 114.66 12.274 114.33 12.0395C114 11.8057 113.521 11.6885 112.892 11.6885H111.007V10.0891L113.596 7.59673H109.313V5.35742H117.141V7.0519L114.09 9.84984L114.681 9.96156C115.586 10.0891 116.313 10.4229 116.861 10.9602Z" fill="white"/>
<path fill-rule="evenodd" clip-rule="evenodd" d="M122.068 11.727C121.776 12.0201 121.629 12.396 121.629 12.8546C121.629 13.3015 121.767 13.6691 122.045 13.9574C122.321 14.245 122.726 14.3884 123.259 14.3884C123.759 14.3884 124.153 14.2525 124.441 13.9822C124.728 13.7098 124.872 13.3236 124.872 12.8222C124.872 12.3429 124.734 11.967 124.456 11.696C124.179 11.4243 123.797 11.2877 123.307 11.2877C122.773 11.2877 122.362 11.4353 122.068 11.727ZM125.119 7.6353C124.72 7.51392 124.307 7.45116 123.882 7.45116C123.019 7.45116 122.372 7.70978 121.94 8.22702C121.509 8.74357 121.304 9.46633 121.327 10.3925C121.89 9.59392 122.758 9.19392 123.929 9.19392C124.643 9.19392 125.269 9.34564 125.807 9.64978C126.344 9.95323 126.76 10.3787 127.053 10.9291C127.346 11.4774 127.492 12.1139 127.492 12.8387C127.492 13.616 127.321 14.296 126.98 14.8767C126.639 15.4581 126.158 15.905 125.535 16.2194C124.912 16.5339 124.19 16.6912 123.372 16.6912C122.391 16.6912 121.543 16.467 120.831 16.0201C120.117 15.5718 119.569 14.9298 119.185 14.0932C118.802 13.2567 118.609 12.2732 118.609 11.1443C118.609 9.96081 118.82 8.92219 119.241 8.02771C119.662 7.13185 120.256 6.44219 121.022 5.95668C121.789 5.47185 122.684 5.23047 123.707 5.23047C124.323 5.23047 124.954 5.31461 125.598 5.48564C126.244 5.65599 126.8 5.88012 127.269 6.15668L126.183 8.17116C125.873 7.93599 125.519 7.75805 125.119 7.6353Z" fill="white"/>
<path fill-rule="evenodd" clip-rule="evenodd" d="M135.661 9.84984C136.316 10.1374 136.822 10.5367 137.178 11.0485C137.535 11.5602 137.715 12.1464 137.715 12.8071C137.715 13.585 137.527 14.2671 137.155 14.8526C136.782 15.4388 136.249 15.8919 135.557 16.2119C134.866 16.5312 134.061 16.6912 133.145 16.6912C132.4 16.6912 131.63 16.5629 130.837 16.3078C130.045 16.0512 129.339 15.7154 128.721 15.2995L129.807 13.1905C130.84 14.0222 131.846 14.4367 132.827 14.4367C133.38 14.4367 133.811 14.3119 134.121 14.0609C134.429 13.8112 134.584 13.4678 134.584 13.0305C134.584 12.594 134.432 12.2602 134.127 12.0319C133.825 11.8022 133.369 11.6885 132.762 11.6885C131.345 11.6885 130.324 11.7091 129.695 11.7519V5.35742H137.219V7.70777H132.378V9.41811H133.386C134.248 9.41811 135.007 9.56225 135.661 9.84984Z" fill="white"/>
<path fill-rule="evenodd" clip-rule="evenodd" d="M14.0491 45.3935C14.8555 44.4749 15.2586 43.2708 15.2586 41.7811C15.2586 40.2922 14.8555 39.0811 14.0491 38.1501C13.2428 37.2184 12.1945 36.7535 10.9044 36.7535C9.639 36.7535 8.60935 37.2184 7.81541 38.1501C7.02077 39.0811 6.62449 40.2922 6.62449 41.7811C6.62449 43.2708 7.02077 44.4749 7.81541 45.3935C8.60935 46.3122 9.639 46.7715 10.9044 46.7715C12.1945 46.7715 13.2428 46.3122 14.0491 45.3935ZM17.4544 32.8239C18.8686 33.6811 19.9665 34.897 20.748 36.4735C21.5296 38.0515 21.9204 39.8694 21.9204 41.9301C21.9204 43.966 21.542 45.7529 20.7853 47.2929C20.0285 48.8322 18.9486 50.0246 17.5474 50.868C16.1456 51.7122 14.5267 52.1342 12.6907 52.1342C11.4254 52.1342 10.2772 51.8922 9.24823 51.4087C8.21858 50.9239 7.344 50.2225 6.62449 49.3039V59.1356H0V31.7632H6.62449V34.3701C8.08832 32.4832 10.0608 31.5391 12.5419 31.5391C14.4027 31.5391 16.0402 31.968 17.4544 32.8239Z" fill="#232323"/>
<path fill-rule="evenodd" clip-rule="evenodd" d="M34.2953 32.4349C35.3994 31.8149 36.6585 31.5039 38.0728 31.5039V37.5743C37.8495 37.5494 37.5145 37.5363 37.0679 37.5363C35.5048 37.5363 34.2395 37.9039 33.2719 38.6356C32.3043 39.368 31.746 40.3674 31.5971 41.6336V51.9122H24.9727V31.7646H31.5971V35.117C32.2918 33.9494 33.1912 33.0556 34.2953 32.4349Z" fill="#232323"/>
<path fill-rule="evenodd" clip-rule="evenodd" d="M46.8175 38.2817C46.0235 39.201 45.6265 40.4045 45.6265 41.8941C45.6265 43.4093 46.0235 44.6258 46.8175 45.5438C47.6114 46.4631 48.6535 46.9217 49.9443 46.9217C51.2586 46.9217 52.3124 46.4631 53.107 45.5438C53.901 44.6258 54.2979 43.4093 54.2979 41.8941C54.2979 40.4045 53.8947 39.201 53.0884 38.2817C52.282 37.3638 51.2331 36.9045 49.9443 36.9045C48.6535 36.9045 47.6114 37.3638 46.8175 38.2817ZM55.7121 32.8258C57.3738 33.6824 58.6639 34.8865 59.5826 36.4383C60.5006 37.99 60.9603 39.7845 60.9603 41.8203C60.9603 43.881 60.5006 45.6872 59.5826 47.2383C58.6639 48.7907 57.3738 49.9941 55.7121 50.8514C54.0498 51.7072 52.127 52.1362 49.9443 52.1362C47.7596 52.1362 45.8374 51.7072 44.1751 50.8514C42.5128 49.9941 41.2288 48.7907 40.3232 47.2383C39.4176 45.6872 38.9648 43.881 38.9648 41.8203C38.9648 39.7845 39.4176 37.99 40.3232 36.4383C41.2288 34.8865 42.5128 33.6824 44.1751 32.8258C45.8374 31.97 47.7596 31.541 49.9443 31.541C52.127 31.541 54.0498 31.97 55.7121 32.8258Z" fill="#232323"/>
<mask id="mask0" mask-type="alpha" maskUnits="userSpaceOnUse" x="59" y="22" width="12" height="38">
<path fill-rule="evenodd" clip-rule="evenodd" d="M59.0996 22.4922H70.7483V59.3986H59.0996V22.4922Z" fill="white"/>
</mask>
<g mask="url(#mask0)">
<path fill-rule="evenodd" clip-rule="evenodd" d="M69.7621 23.4798C70.4195 24.1377 70.7483 24.988 70.7483 26.0308C70.7483 27.0487 70.4195 27.8922 69.7621 28.5632C69.1039 29.2336 68.2672 29.5687 67.25 29.5687C66.232 29.5687 65.3947 29.2336 64.7372 28.5632C64.0804 27.8922 63.7516 27.0487 63.7516 26.0308C63.7516 24.988 64.0804 24.1377 64.7372 23.4798C65.3947 22.8218 66.232 22.4922 67.25 22.4922C68.2672 22.4922 69.1039 22.8218 69.7621 23.4798ZM62.0397 54.1474C62.6848 54.1474 63.181 53.937 63.5283 53.5143C63.8757 53.0922 64.0494 52.4722 64.0494 51.6529V31.766H70.6739V52.6584C70.6739 54.7439 70.035 56.3874 68.7572 57.5929C67.4788 58.7963 65.7482 59.3991 63.5656 59.3991C62.0025 59.3991 60.5138 59.1384 59.0996 58.617L60.4022 53.8867C61.0473 54.0598 61.5931 54.1474 62.0397 54.1474Z" fill="#232323"/>
</g>
<path fill-rule="evenodd" clip-rule="evenodd" d="M87.8293 40.0693C87.8293 38.9031 87.4881 37.9658 86.8058 37.2576C86.1229 36.55 85.2242 36.1962 84.1084 36.1962C83.0663 36.1962 82.191 36.5445 81.4846 37.2389C80.7768 37.9348 80.3116 38.8776 80.089 40.0693H87.8293ZM91.6253 34.4465C93.3869 36.3831 94.2677 39.0396 94.2677 42.4155C94.2677 42.9369 94.2546 43.3348 94.2305 43.6079H80.2372C80.559 44.7493 81.118 45.6252 81.9119 46.2334C82.7059 46.8417 83.6735 47.1458 84.8148 47.1458C85.6832 47.1458 86.5205 46.9727 87.3269 46.6245C88.1325 46.2762 88.8713 45.7672 89.5412 45.0969L93.0023 48.561C91.9603 49.7279 90.7011 50.6155 89.2249 51.2231C87.7487 51.8327 86.0801 52.1362 84.2193 52.1362C82.0608 52.1362 80.1758 51.7141 78.5631 50.87C76.9491 50.0265 75.7154 48.8341 74.8594 47.2948C74.0035 45.7548 73.5762 43.9672 73.5762 41.9314C73.5762 39.8714 74.0097 38.0527 74.8781 36.4755C75.7464 34.8989 76.9746 33.6824 78.5631 32.8258C80.1497 31.97 81.9863 31.541 84.0711 31.541C87.3455 31.541 89.8631 32.51 91.6253 34.4465Z" fill="#232323"/>
<path fill-rule="evenodd" clip-rule="evenodd" d="M106.326 37.0155C105.134 37.0155 104.166 37.4686 103.423 38.3755C102.678 39.281 102.306 40.4548 102.306 41.8941C102.306 43.3596 102.678 44.5383 103.423 45.432C104.166 46.3258 105.134 46.7727 106.326 46.7727C108.161 46.7727 109.475 46.0155 110.27 44.501L115.145 47.2941C114.352 48.8341 113.16 50.0258 111.572 50.87C109.984 51.7134 108.124 52.1362 105.991 52.1362C103.931 52.1362 102.119 51.7134 100.557 50.87C98.9933 50.0258 97.7838 48.8341 96.9278 47.2941C96.0718 45.7548 95.6445 43.9672 95.6445 41.9314C95.6445 39.8714 96.078 38.0527 96.9471 36.4755C97.8148 34.8989 99.0367 33.6824 100.613 32.8258C102.188 31.97 104.005 31.541 106.065 31.541C108.075 31.541 109.861 31.9576 111.424 32.7893C112.987 33.6203 114.202 34.7941 115.071 36.3086L110.27 39.101C109.326 37.7114 108.012 37.0155 106.326 37.0155Z" fill="#232323"/>
<path fill-rule="evenodd" clip-rule="evenodd" d="M130.926 50.8699C130.181 51.292 129.326 51.621 128.357 51.8568C127.39 52.092 126.41 52.2099 125.418 52.2099C123.432 52.2099 121.827 51.6396 120.598 50.4968C119.37 49.3554 118.756 47.7789 118.756 45.7672V37.1272H115.965V32.7327H118.756V27.1465H125.343V32.7327H130.554V37.1272H125.343V44.7244C125.343 46.1403 125.926 46.8472 127.092 46.8472C127.811 46.8472 128.668 46.6244 129.66 46.1768L130.926 50.8699Z" fill="#232323"/>
</svg>
