<svg width="88" height="50" viewBox="0 0 88 50" fill="none" xmlns="http://www.w3.org/2000/svg">
<path fill-rule="evenodd" clip-rule="evenodd" d="M25 50C38.8071 50 50 38.8071 50 25C50 11.1929 38.8071 0 25 0C11.1929 0 0 11.1929 0 25C0 38.8071 11.1929 50 25 50Z" fill="#4A4A4A"/>
<path fill-rule="evenodd" clip-rule="evenodd" d="M65.7495 27.116C65.7495 27.6574 65.6422 28.1123 65.4275 28.481C65.2128 28.8497 64.9282 29.146 64.5735 29.37C64.2188 29.594 63.8152 29.755 63.3625 29.853C62.9098 29.951 62.4455 30 61.9695 30H58.0215V20.088H61.9695C62.3522 20.088 62.7441 20.1277 63.1455 20.207C63.5468 20.2863 63.9108 20.4217 64.2375 20.613C64.5642 20.8043 64.8302 21.0633 65.0355 21.39C65.2408 21.7167 65.3435 22.132 65.3435 22.636C65.3435 23.1867 65.1942 23.6417 64.8955 24.001C64.5968 24.3604 64.2048 24.6193 63.7195 24.778V24.806C63.9995 24.8527 64.2631 24.939 64.5105 25.065C64.7578 25.191 64.9725 25.352 65.1545 25.548C65.3365 25.744 65.4812 25.9727 65.5885 26.234C65.6958 26.4954 65.7495 26.7893 65.7495 27.116ZM63.0335 22.958C63.0335 22.622 62.9052 22.377 62.6485 22.223C62.3918 22.069 62.0115 21.992 61.5075 21.992H60.3315V24.036H61.6195C62.0675 24.036 62.4151 23.945 62.6625 23.763C62.9098 23.581 63.0335 23.3127 63.0335 22.958ZM63.3555 26.892C63.3555 26.4813 63.2015 26.1967 62.8935 26.038C62.5855 25.8793 62.1748 25.8 61.6615 25.8H60.3315V28.068H61.6755C61.8622 28.068 62.0558 28.0517 62.2565 28.019C62.4572 27.9863 62.6392 27.928 62.8025 27.844C62.9658 27.76 63.0988 27.641 63.2015 27.487C63.3042 27.333 63.3555 27.1347 63.3555 26.892ZM67.2335 30V19.416H69.5575V30H67.2335ZM78.7695 26.486C78.7695 27.0554 78.6668 27.571 78.4615 28.033C78.2561 28.495 77.9762 28.887 77.6215 29.209C77.2668 29.531 76.8562 29.7807 76.3895 29.958C75.9228 30.1353 75.4235 30.224 74.8915 30.224C74.3688 30.224 73.8718 30.1353 73.4005 29.958C72.9291 29.7807 72.5185 29.531 72.1685 29.209C71.8185 28.887 71.5408 28.495 71.3355 28.033C71.1301 27.571 71.0275 27.0554 71.0275 26.486C71.0275 25.9167 71.1301 25.4034 71.3355 24.946C71.5408 24.4887 71.8185 24.1014 72.1685 23.784C72.5185 23.4667 72.9291 23.224 73.4005 23.056C73.8718 22.888 74.3688 22.804 74.8915 22.804C75.4235 22.804 75.9228 22.888 76.3895 23.056C76.8562 23.224 77.2668 23.4667 77.6215 23.784C77.9762 24.1014 78.2561 24.4887 78.4615 24.946C78.6668 25.4034 78.7695 25.9167 78.7695 26.486ZM76.5575 26.486C76.5575 26.262 76.5202 26.0427 76.4455 25.828C76.3708 25.6133 76.2635 25.4243 76.1235 25.261C75.9835 25.0977 75.8108 24.9647 75.6055 24.862C75.4002 24.7593 75.1622 24.708 74.8915 24.708C74.6208 24.708 74.3828 24.7593 74.1775 24.862C73.9722 24.9647 73.8018 25.0977 73.6665 25.261C73.5312 25.4243 73.4285 25.6133 73.3585 25.828C73.2885 26.0427 73.2535 26.262 73.2535 26.486C73.2535 26.71 73.2885 26.9293 73.3585 27.144C73.4285 27.3587 73.5335 27.5523 73.6735 27.725C73.8135 27.8977 73.9862 28.0353 74.1915 28.138C74.3968 28.2407 74.6348 28.292 74.9055 28.292C75.1762 28.292 75.4142 28.2407 75.6195 28.138C75.8248 28.0353 75.9975 27.8977 76.1375 27.725C76.2775 27.5523 76.3825 27.3587 76.4525 27.144C76.5225 26.9293 76.5575 26.71 76.5575 26.486ZM87.6175 29.342C87.6175 30.0234 87.5195 30.616 87.3235 31.12C87.1275 31.624 86.8522 32.0417 86.4975 32.373C86.1428 32.7044 85.7112 32.9517 85.2025 33.115C84.6938 33.2783 84.1315 33.36 83.5155 33.36C82.8995 33.36 82.2672 33.2667 81.6185 33.08C80.9698 32.8933 80.4075 32.6227 79.9315 32.268L81.0795 30.63C81.4155 30.9287 81.7865 31.1503 82.1925 31.295C82.5985 31.4397 82.9975 31.512 83.3895 31.512C84.0615 31.512 84.5585 31.3347 84.8805 30.98C85.2025 30.6253 85.3635 30.154 85.3635 29.566V29.146H85.3215C85.1068 29.426 84.8175 29.65 84.4535 29.818C84.0895 29.986 83.6742 30.07 83.2075 30.07C82.6755 30.07 82.2042 29.9743 81.7935 29.783C81.3828 29.5917 81.0352 29.3327 80.7505 29.006C80.4658 28.6793 80.2488 28.299 80.0995 27.865C79.9501 27.431 79.8755 26.9714 79.8755 26.486C79.8755 26.0007 79.9501 25.5387 80.0995 25.1C80.2488 24.6613 80.4658 24.274 80.7505 23.938C81.0352 23.602 81.3828 23.3337 81.7935 23.133C82.2042 22.9323 82.6708 22.832 83.1935 22.832C83.6322 22.832 84.0521 22.9207 84.4535 23.098C84.8548 23.2753 85.1768 23.5507 85.4195 23.924H85.4475V23.028H87.6175V29.342ZM85.4335 26.472C85.4335 26.2387 85.3938 26.0147 85.3145 25.8C85.2352 25.5853 85.1208 25.3963 84.9715 25.233C84.8221 25.0697 84.6448 24.9413 84.4395 24.848C84.2341 24.7547 84.0008 24.708 83.7395 24.708C83.4781 24.708 83.2472 24.7547 83.0465 24.848C82.8458 24.9413 82.6755 25.0673 82.5355 25.226C82.3955 25.3847 82.2882 25.5713 82.2135 25.786C82.1388 26.0007 82.1015 26.2293 82.1015 26.472C82.1015 26.7053 82.1388 26.9293 82.2135 27.144C82.2882 27.3587 82.3955 27.5477 82.5355 27.711C82.6755 27.8743 82.8458 28.005 83.0465 28.103C83.2472 28.201 83.4781 28.25 83.7395 28.25C84.0008 28.25 84.2365 28.201 84.4465 28.103C84.6565 28.005 84.8338 27.8767 84.9785 27.718C85.1232 27.5593 85.2352 27.3727 85.3145 27.158C85.3938 26.9433 85.4335 26.7147 85.4335 26.472Z" fill="#4A4A4A"/>
<path fill-rule="evenodd" clip-rule="evenodd" d="M27.714 27.294C27.714 27.8353 27.6043 28.3043 27.385 28.701C27.1657 29.0977 26.8787 29.4243 26.524 29.681C26.1693 29.9377 25.7703 30.129 25.327 30.255C24.8837 30.381 24.4333 30.444 23.976 30.444C23.528 30.444 23.0917 30.3927 22.667 30.29C22.2423 30.1873 21.855 30.031 21.505 29.821C21.155 29.611 20.8493 29.3403 20.588 29.009C20.3267 28.6777 20.1307 28.2787 20 27.812L22.184 27.238C22.2773 27.5647 22.4687 27.8517 22.758 28.099C23.0473 28.3463 23.416 28.47 23.864 28.47C24.032 28.47 24.2023 28.4467 24.375 28.4C24.5477 28.3533 24.7017 28.281 24.837 28.183C24.9723 28.085 25.0843 27.9567 25.173 27.798C25.2617 27.6393 25.306 27.4433 25.306 27.21C25.306 26.958 25.2477 26.748 25.131 26.58C25.0143 26.412 24.8603 26.279 24.669 26.181C24.4777 26.083 24.2607 26.013 24.018 25.971C23.7753 25.929 23.5327 25.908 23.29 25.908H22.66V24.186H23.346C23.57 24.186 23.7847 24.1697 23.99 24.137C24.1953 24.1043 24.3797 24.0437 24.543 23.955C24.7063 23.8663 24.837 23.7473 24.935 23.598C25.033 23.4487 25.082 23.2527 25.082 23.01C25.082 22.6553 24.956 22.3847 24.704 22.198C24.452 22.0113 24.1627 21.918 23.836 21.918C23.5 21.918 23.2083 22.0183 22.961 22.219C22.7137 22.4197 22.5527 22.688 22.478 23.024L20.294 22.52C20.4153 22.1 20.5973 21.7337 20.84 21.421C21.0827 21.1083 21.3697 20.847 21.701 20.637C22.0323 20.427 22.394 20.2683 22.786 20.161C23.178 20.0537 23.5793 20 23.99 20C24.4287 20 24.8557 20.056 25.271 20.168C25.6863 20.28 26.0573 20.4527 26.384 20.686C26.7107 20.9193 26.9743 21.211 27.175 21.561C27.3757 21.911 27.476 22.324 27.476 22.8C27.476 23.3507 27.3197 23.815 27.007 24.193C26.6943 24.571 26.2953 24.8253 25.81 24.956V24.998C26.09 25.0633 26.3467 25.1683 26.58 25.313C26.8133 25.4577 27.014 25.6303 27.182 25.831C27.35 26.0317 27.4807 26.2557 27.574 26.503C27.6673 26.7503 27.714 27.014 27.714 27.294ZM37.01 26.846C37.01 27.406 36.9073 27.91 36.702 28.358C36.4967 28.806 36.2167 29.184 35.862 29.492C35.5073 29.8 35.092 30.0357 34.616 30.199C34.14 30.3623 33.636 30.444 33.104 30.444C32.5627 30.444 32.0563 30.3623 31.585 30.199C31.1137 30.0357 30.7007 29.8 30.346 29.492C29.9913 29.184 29.7113 28.8107 29.506 28.372C29.3007 27.9333 29.198 27.4433 29.198 26.902C29.198 26.314 29.3007 25.7797 29.506 25.299C29.7113 24.8183 29.9773 24.3307 30.304 23.836L32.698 20.266H35.54L33.104 23.654L33.062 23.724C33.1553 23.6867 33.2673 23.6587 33.398 23.64C33.5287 23.6213 33.65 23.612 33.762 23.612C34.1913 23.612 34.6043 23.689 35.001 23.843C35.3977 23.997 35.743 24.2163 36.037 24.501C36.331 24.7857 36.5667 25.1263 36.744 25.523C36.9213 25.9197 37.01 26.3607 37.01 26.846ZM34.658 26.902C34.658 26.454 34.518 26.083 34.238 25.789C33.958 25.495 33.5847 25.348 33.118 25.348C32.6513 25.348 32.2733 25.4927 31.984 25.782C31.6947 26.0713 31.55 26.4493 31.55 26.916C31.55 27.3453 31.69 27.714 31.97 28.022C32.25 28.33 32.628 28.484 33.104 28.484C33.5707 28.484 33.9463 28.3393 34.231 28.05C34.5157 27.7607 34.658 27.378 34.658 26.902ZM45.788 26.902C45.788 27.5087 45.6807 28.0337 45.466 28.477C45.2513 28.9203 44.9643 29.2867 44.605 29.576C44.2457 29.8653 43.8373 30.0823 43.38 30.227C42.9227 30.3717 42.4513 30.444 41.966 30.444C41.518 30.444 41.091 30.3857 40.685 30.269C40.279 30.1523 39.9103 29.9867 39.579 29.772C39.2477 29.5573 38.963 29.2937 38.725 28.981C38.487 28.6683 38.312 28.316 38.2 27.924L40.342 27.266C40.4447 27.6113 40.6383 27.896 40.923 28.12C41.2077 28.344 41.546 28.456 41.938 28.456C42.3393 28.456 42.687 28.3347 42.981 28.092C43.275 27.8493 43.422 27.49 43.422 27.014C43.422 26.7247 43.3613 26.482 43.24 26.286C43.1187 26.09 42.9623 25.9337 42.771 25.817C42.5797 25.7003 42.3627 25.6187 42.12 25.572C41.8773 25.5253 41.6347 25.502 41.392 25.502C41.0373 25.502 40.6337 25.5417 40.181 25.621C39.7283 25.7003 39.3247 25.8053 38.97 25.936L39.208 20.266H45.284V22.282H41.294L41.21 23.85C41.3593 23.8127 41.525 23.787 41.707 23.773C41.889 23.759 42.0547 23.752 42.204 23.752C42.6987 23.752 43.1653 23.8173 43.604 23.948C44.0427 24.0787 44.423 24.277 44.745 24.543C45.067 24.809 45.3213 25.138 45.508 25.53C45.6947 25.922 45.788 26.3793 45.788 26.902ZM50.198 28.946C50.198 29.338 50.0603 29.6647 49.785 29.926C49.5097 30.1873 49.1807 30.318 48.798 30.318C48.602 30.318 48.4177 30.283 48.245 30.213C48.0723 30.143 47.9207 30.0473 47.79 29.926C47.6593 29.8047 47.5567 29.6623 47.482 29.499C47.4073 29.3357 47.37 29.156 47.37 28.96C47.37 28.7733 47.4073 28.596 47.482 28.428C47.5567 28.26 47.6593 28.113 47.79 27.987C47.9207 27.861 48.0723 27.7607 48.245 27.686C48.4177 27.6113 48.602 27.574 48.798 27.574C49.1807 27.574 49.5097 27.7047 49.785 27.966C50.0603 28.2273 50.198 28.554 50.198 28.946Z" fill="white"/>
</svg>
